<?xml version="1.0" encoding="utf-8"?>
<!-- Generator: Adobe Illustrator 21.1.0, SVG Export Plug-In . SVG Version: 6.00 Build 0)  -->
<svg version="1.1" id="圖層_1" xmlns="http://www.w3.org/2000/svg" xmlns:xlink="http://www.w3.org/1999/xlink" x="0px" y="0px"
	 viewBox="0 0 600 122" style="enable-background:new 0 0 600 122;" xml:space="preserve">
<style type="text/css">
	.st0{fill:#003366;}
	.st1{fill:#996600;}
</style>
<g>
	<g>
		<path class="st0" d="M216.6,88.6v9.1h-2v-0.9h-10.3v0.9h-2v-9c-0.3,0.1-0.9,0.4-1.8,0.6l-1-1.9c2.6-0.6,4.8-1.8,6.6-3.3h-6.5v-1.8
			h8.6v-1.7c-3.1,0.1-5.4,0.1-6.8,0.1l-0.7-2c0.8,0,1.8,0,3,0c5.6,0,9.8-0.3,12.7-0.9l0.9,1.8c-1.9,0.4-4.2,0.7-7.1,0.9v1.8h8.9v1.8
			h-6.7c1.6,1.6,3.9,2.6,6.9,3.2l-0.9,1.9c-0.3-0.1-0.6-0.2-0.9-0.3C217.2,88.9,216.9,88.8,216.6,88.6z M203.6,88h4.8v-3.8
			C207.1,86,205.6,87.2,203.6,88z M214.7,89.8h-10.3v1.6h10.3V89.8z M204.3,95h10.3v-1.9h-10.3V95z M210.3,84.2v3.9h5.2
			C213.4,87.2,211.7,86,210.3,84.2z"/>
		<path class="st0" d="M240.2,91.1c-0.6,2.3-1.4,4.3-2.7,6.3l-1.7-1.8c1.2-1.8,2.1-3.6,2.5-5.6L240.2,91.1z M238.9,87.7
			c-1.1-0.9-2.1-1.8-2.9-2.3l1.2-1.6c1,0.5,2.1,1.2,3.1,2.1L238.9,87.7z M240.9,80.3h2.8v-2.2h2v2.2h3.8v-2.2h1.9v2.2h3.5V82h-3.5
			v2.2h3.8V86h-4c0.5,1.1,2,2.3,4.2,3.4l-0.9,1.9c-1.2-0.7-2.4-1.6-3.2-2.3v4.3h-6.7v1.3c0,0.5,0.2,0.7,0.7,0.7h6.2
			c0.6,0,0.9-0.2,1-0.6s0.2-1.2,0.3-2.4l2,0.7c-0.2,2-0.5,3.1-0.9,3.5s-1,0.5-2.2,0.5h-6.8c-0.9,0-1.6-0.2-1.9-0.5s-0.5-1-0.5-2
			v-4.7c-0.3,0.3-1,0.7-2,1.3l-1.2-1.8c2.3-1,3.8-2.3,4.4-3.5h-3.4V84h3.2v-2.1h-2.8V81l-1.2,1.6c-1.1-1-2.2-1.9-3.1-2.5l1.3-1.6
			c1.2,0.7,2.2,1.4,3,2.1v-0.3C240.7,80.3,240.9,80.3,240.9,80.3z M244.6,89.4v2.1h4.9v-2.1H244.6z M246.1,85.9
			c-0.3,0.7-0.7,1.3-1.2,1.9h5.4c-0.4-0.5-0.9-1.1-1.2-1.9H246.1z M245.7,82v2.1h3.8V82H245.7z"/>
		<path class="st0" d="M275.9,80.9c-0.7,0.1-1.9,0.3-3.2,0.3l-0.4-1.8c3.1-0.1,5.8-0.6,8.1-1.6l0.7,1.8c-1,0.3-2.1,0.6-3.2,0.8v3
			h3.2v1.8h-3.2v0.2c1.6,1.4,2.8,2.6,3.5,3.5l-1.1,1.8c-0.4-0.6-0.8-1.1-1.2-1.6c-0.4-0.4-0.7-0.9-1.1-1.4v9.7l-2,0.1v-8.7
			c-0.5,1.3-1.4,2.9-2.9,4.8l-1.1-1.9c1.8-2,3.1-4.1,3.9-6.5h-3.7v-1.8h3.9v-2.6L275.9,80.9L275.9,80.9z M280.8,93v-2l7-1V77.9h2
			v11.9l1.9-0.3v2l-1.9,0.3v6h-2V92L280.8,93z M285.4,88.7c-1.4-1.2-2.7-2.2-3.8-2.8l1.2-1.4c1,0.5,2.4,1.4,3.9,2.6L285.4,88.7z
			 M285.7,83.6c-1.6-1.2-2.8-2.2-3.8-2.8l1.2-1.3c0.9,0.5,2.2,1.3,3.8,2.6L285.7,83.6z"/>
		<path class="st0" d="M315.9,84.1h-2.5v3.7c1.1-0.4,2-0.6,2.5-0.9V89c-0.4,0.2-1.2,0.5-2.5,0.9v5.2c0,1-0.1,1.7-0.4,2
			s-0.9,0.5-2,0.5h-1.7l-0.5-2.2l1.9,0.1c0.4,0,0.7-0.2,0.7-0.7v-4.2c-1.2,0.3-2.2,0.5-2.8,0.7l-0.5-2.3c1.2-0.1,2.3-0.4,3.3-0.6
			v-4.2h-3.1v-2h3.1v-4.3h2.1v4.3h2.5v-1.3h4.6v-3h2.1v3h5v1.9h-5v2.8h4.2v1.8c-0.2,0.7-0.6,1.8-1.3,3c-0.7,1.2-1.4,2.2-2.3,2.9
			c1.4,1.1,3,2,4.8,2.5l-1,2c-1.9-0.6-3.6-1.7-5.2-3.1c-2.2,1.7-4.3,2.8-6.3,3.2l-1.1-1.9c2.1-0.4,4-1.3,6.1-2.7
			c-1-1.1-2.2-2.6-3.2-4.4l1.8-0.7c0.9,1.8,2,3,2.9,4c1.4-1.1,2.5-2.6,3-4.3h-8.4v-2h4.1v-2.8h-4.6L315.9,84.1z"/>
		<path class="st0" d="M356.8,85.3c0.3,1.8,1,3.5,2.3,5.4s2.8,3.5,5,4.9l-1.7,2c-3.8-2.5-6.4-6.5-7.8-12.2h-0.3
			c-0.9,5.1-3.7,9.1-8.5,12.2l-1.6-2c2-1.1,3.7-2.6,5.2-4.4c1.4-1.9,2.3-3.7,2.6-5.7h-7.2v-2.3h7.7c0.2-1.2,0.3-3,0.3-5.3h2.2
			c0,2.4-0.1,4.1-0.2,5.3h8.9v2.3L356.8,85.3z"/>
		<path class="st0" d="M396.1,89.3v1.6c-1.2,0.6-2.8,1.2-4.6,1.9h8.7v1.7h-8.7v0.8c0,1.4-0.6,2.3-2,2.3h-3.1l-0.5-1.7l2.9,0.1
			c0.4,0,0.6-0.2,0.6-0.6v-0.8h-9.1v-1.7h9.1V92c0.9-0.2,2.2-0.5,3.7-0.9h-8.9v-1.6H396v-0.2H396.1z M398,88.4h-15.2v3.1h-1.9v-4.8
			h1l-0.2-8.1c1.9-0.1,3.4-0.3,4.7-0.6l0.9,1.6c-0.8,0.3-2.1,0.4-3.7,0.5l0.1,1h3.3v1.4h-3.2v1.2h3.2v1.4h-3.1v1.4H397v-1.4h-2.9
			v-1.4h3v-1.2h-3v-1.4h3.1V80h-3.3v-1.7h5.2l-0.2,8.3h1.1v4.8h-1.9v-3C398.1,88.4,398,88.4,398,88.4z M390.6,80.8
			c-0.7,0.4-1.6,0.8-2.5,1.2l-1-1.4c1.1-0.3,2-0.6,2.3-0.8c-0.3-0.3-0.8-0.6-1.4-1l1.1-1c0.5,0.3,1.1,0.7,1.7,1.1
			c0.6-0.4,1-0.8,1.2-1.1l1,0.9c-0.3,0.4-0.7,0.8-1.2,1.1c0.3,0.2,0.6,0.6,1.1,1.1l-1.2,0.9C391.1,81.2,390.8,80.8,390.6,80.8z
			 M390.7,85.1c-0.6,0.4-1.4,0.8-2.5,1.1l-0.9-1.4c0.9-0.2,1.7-0.4,2.2-0.7c-0.3-0.2-0.7-0.5-1.4-1l1.1-0.9c0.3,0.2,0.5,0.3,0.7,0.4
			c0.3,0.2,0.5,0.4,0.9,0.6c0.4-0.3,0.9-0.7,1.4-1.3l1.1,0.9c-0.5,0.5-1,0.9-1.4,1.2c0.4,0.3,0.8,0.7,1.2,1.1l-1.3,1
			C391.2,85.6,390.8,85.1,390.7,85.1z"/>
	</g>
	<g>
		<path class="st0" d="M5.6,121.3h-2v-13.7H0v-1.8h9.3v1.8H5.7L5.6,121.3L5.6,121.3z"/>
		<path class="st0" d="M20.1,112v-6.2h2v15.4h-2v-7.4h-7.3v7.4h-2v-15.4h2v6.2H20.1z"/>
		<path class="st0" d="M24.9,105.8h8.3v1.8h-6.3v4.3h6.2v1.8h-6.2v5.8h6.4v1.8H25v-15.4h-0.1V105.8z"/>
		<path class="st0" d="M51.1,112v-6.2h2v15.4h-2v-7.4h-7.3v7.4h-2v-15.4h2v6.2H51.1z"/>
		<path class="st0" d="M71.2,113.6c0,4.6-3.6,8.1-8.1,8.1s-8.1-3.4-8.1-8.1c0-4.4,3.6-8.1,8.1-8.1C67.4,105.5,71.2,109.1,71.2,113.6
			z M69.2,113.6c0-3.4-2.6-6.2-6.2-6.2s-6.2,2.9-6.2,6.2c0,3.5,2.8,6.2,6.2,6.2C66.4,119.8,69.2,117.1,69.2,113.6z"/>
		<path class="st0" d="M73,105.1l11.6,12.1v-11.4h2V122L75,109.9v11.5h-2V105.1z"/>
		<path class="st0" d="M103.6,113.5v0.6c0,4.2-3,7.4-7.3,7.4s-7.8-3.7-7.8-8c0-4.4,3.5-8.1,8-8.1c2.4,0,4.8,1.1,6.3,3l-1.3,1.2
			c-1.1-1.6-3-2.5-4.9-2.5c-3.4,0-6.2,2.8-6.2,6.3c0,3.2,2.7,6.3,6,6.3c2.4,0,5-2.1,5.1-4.6h-4v-1.8h6.2L103.6,113.5L103.6,113.5z"
			/>
		<path class="st0" d="M120.3,105.8h2.5l-6.9,6.9l7,8.5h-2.6l-5.8-7.2l-0.8,0.7v6.4h-2v-15.4h2v6.7L120.3,105.8z"/>
		<path class="st0" d="M139.3,113.6c0,4.6-3.6,8.1-8.1,8.1c-4.4,0-8.1-3.4-8.1-8.1c0-4.4,3.6-8.1,8.1-8.1S139.3,109.1,139.3,113.6z
			 M137.5,113.6c0-3.4-2.6-6.2-6.2-6.2c-3.6,0-6.2,2.9-6.2,6.2c0,3.5,2.8,6.2,6.2,6.2C134.6,119.8,137.5,117.1,137.5,113.6z"/>
		<path class="st0" d="M141.3,105.1l11.6,12.1v-11.4h2V122l-11.6-12.1v11.5h-2V105.1z"/>
		<path class="st0" d="M171.8,113.5v0.6c0,4.2-3,7.4-7.3,7.4s-7.8-3.7-7.8-8c0-4.4,3.5-8.1,8-8.1c2.4,0,4.8,1.1,6.3,3l-1.3,1.2
			c-1.1-1.6-3-2.5-4.9-2.5c-3.4,0-6.2,2.8-6.2,6.3c0,3.2,2.7,6.3,6,6.3c2.4,0,5-2.1,5.1-4.6h-4v-1.8h6.2v0.2H171.8z"/>
		<path class="st0" d="M181.8,105.8v9.1c0,2.5,0.7,4.9,3.7,4.9s3.7-2.4,3.7-4.9v-9.1h2v9.7c0,3.4-2.1,6-5.7,6c-3.5,0-5.7-2.6-5.7-6
			v-9.7H181.8z"/>
		<path class="st0" d="M193.8,105.1l11.6,12.1v-11.4h2V122l-11.6-12.1v11.5h-2V105.1z"/>
		<path class="st0" d="M212.2,121.3h-2v-15.4h2V121.3z"/>
		<path class="st0" d="M220.3,117.3l4.6-11.5h2.1l-6.7,16.2l-6.7-16.2h2.1L220.3,117.3z"/>
		<path class="st0" d="M228.5,105.8h8.3v1.8h-6.4v4.3h6.2v1.8h-6.2v5.8h6.4v1.8h-8.3V105.8z"/>
		<path class="st0" d="M249,121.3h-2.4l-4.6-6.5h-0.8v6.5h-2v-15.4h2.4c1.3,0,2.9,0,4,0.7c1.2,0.7,2.1,2.2,2.1,3.7
			c0,2.2-1.4,4-3.7,4.3L249,121.3z M241.3,113.2h0.6c2,0,4.1-0.4,4.1-2.8s-2.3-2.8-4.2-2.8h-0.5L241.3,113.2L241.3,113.2z"/>
		<path class="st0" d="M257.6,108.8c-0.6-0.9-1.3-1.4-2.5-1.4c-1.2,0-2.6,0.8-2.6,2.2c0,1.2,1.1,1.9,2.2,2.2l1.1,0.4
			c2.2,0.8,3.8,2.1,3.8,4.7c0,2.8-2.2,4.9-5,4.9c-2.5,0-4.4-1.9-4.8-4.3l2-0.4c0,1.7,1.3,2.9,3,2.9s2.9-1.3,2.9-3s-1.3-2.4-2.7-2.9
			l-1-0.4c-1.8-0.7-3.3-1.8-3.3-3.9c0-2.5,2.2-4,4.6-4c1.8,0,3.1,0.8,3.9,2.4L257.6,108.8z"/>
		<path class="st0" d="M263.8,121.3h-2v-15.4h2V121.3z"/>
		<path class="st0" d="M271,121.3h-2v-13.7h-3.6v-1.8h9.3v1.8H271V121.3z"/>
		<path class="st0" d="M274.9,105.8h2.2l3.8,6.6l3.8-6.6h2.2l-5.1,8.7v6.7h-2v-6.7L274.9,105.8z"/>
		<path class="st0" d="M309.6,113.6c0,4.6-3.6,8.1-8.1,8.1s-8.1-3.4-8.1-8.1c0-4.4,3.6-8.1,8.1-8.1S309.6,109.1,309.6,113.6z
			 M307.7,113.6c0-3.4-2.6-6.2-6.2-6.2s-6.2,2.9-6.2,6.2c0,3.5,2.8,6.2,6.2,6.2C304.9,119.8,307.7,117.1,307.7,113.6z"/>
		<path class="st0" d="M313.7,107.6v4.3h5.4v1.8h-5.4v7.6h-2v-15.4h7.4v1.8C319.1,107.6,313.7,107.6,313.7,107.6z"/>
		<path class="st0" d="M334.7,108.8c-0.6-0.9-1.3-1.4-2.5-1.4s-2.6,0.8-2.6,2.2c0,1.2,1.1,1.9,2.2,2.2l1.1,0.4
			c2.2,0.8,3.8,2.1,3.8,4.7c0,2.8-2.2,4.9-5,4.9c-2.5,0-4.4-1.9-4.8-4.3l2-0.4c0,1.7,1.3,2.9,3,2.9s2.9-1.3,2.9-3s-1.3-2.4-2.7-2.9
			l-1-0.4c-1.8-0.7-3.3-1.8-3.3-3.9c0-2.5,2.2-4,4.6-4c1.8,0,3.1,0.8,3.9,2.4L334.7,108.8z"/>
		<path class="st0" d="M350.2,108.8c-1.1-1-2.6-1.6-4-1.6c-3.4,0-6.1,2.9-6.1,6.3s2.6,6.3,6.1,6.3c1.6,0,3-0.6,4.1-1.6v2.3
			c-1.1,0.7-2.7,1.1-4,1.1c-4.4,0-8.1-3.5-8.1-8c0-4.6,3.6-8.2,8.2-8.2c1.3,0,2.7,0.3,3.9,1v2.2h-0.1V108.8z"/>
		<path class="st0" d="M354.5,121.3h-2v-15.4h2V121.3z"/>
		<path class="st0" d="M357.6,105.8h8.3v1.8h-6.4v4.3h6.2v1.8h-6.2v5.8h6.4v1.8h-8.3V105.8z"/>
		<path class="st0" d="M368.4,105.1l11.6,12.1v-11.4h2V122l-11.6-12.1v11.5h-2V105.1z"/>
		<path class="st0" d="M396.1,108.8c-1.1-1-2.6-1.6-4-1.6c-3.4,0-6.1,2.9-6.1,6.3s2.6,6.3,6.1,6.3c1.6,0,3-0.6,4.1-1.6v2.3
			c-1.1,0.7-2.7,1.1-4,1.1c-4.4,0-8.1-3.5-8.1-8c0-4.6,3.6-8.2,8.2-8.2c1.3,0,2.7,0.3,3.9,1v2.2h-0.1V108.8z"/>
		<path class="st0" d="M398.6,105.8h8.3v1.8h-6.4v4.3h6.2v1.8h-6.2v5.8h6.4v1.8h-8.3V105.8z"/>
		<path class="st0" d="M417.7,117.4l-1.8,3.8h-2.1l7.3-16.1l7.3,16.1h-2.1l-1.8-3.8H417.7z M421.3,109.4l-2.8,6.2h5.5L421.3,109.4z"
			/>
		<path class="st0" d="M430,105.1l11.6,12.1v-11.4h2V122L432,109.9v11.5h-2V105.1z"/>
		<path class="st0" d="M446.3,105.8h3.2c4.8,0,8.7,2.5,8.7,7.7c0,5.3-3.8,7.8-8.7,7.8h-3.1v-15.4L446.3,105.8L446.3,105.8z
			 M448.2,119.6h0.7c3.9,0,7.3-1.4,7.3-6s-3.4-6-7.3-6h-0.7V119.6z"/>
		<path class="st0" d="M470.6,121.3h-2v-13.7H465v-1.8h9.3v1.8h-3.6L470.6,121.3L470.6,121.3z"/>
		<path class="st0" d="M476,105.8h8.3v1.8H478v4.3h6.2v1.8H478v5.8h6.4v1.8h-8.3v-15.4H476V105.8z"/>
		<path class="st0" d="M498.1,108.8c-1.1-1-2.6-1.6-4-1.6c-3.4,0-6.1,2.9-6.1,6.3s2.6,6.3,6.1,6.3c1.6,0,3-0.6,4.1-1.6v2.3
			c-1.1,0.7-2.7,1.1-4,1.1c-4.4,0-8.1-3.5-8.1-8c0-4.6,3.6-8.2,8.2-8.2c1.3,0,2.7,0.3,3.9,1v2.2h-0.1V108.8z"/>
		<path class="st0" d="M509.7,112v-6.2h2v15.4h-2v-7.4h-7.3v7.4h-2v-15.4h2v6.2H509.7z"/>
		<path class="st0" d="M514.4,105.1l11.6,12.1v-11.4h2V122l-11.6-12.1v11.5h-2V105.1L514.4,105.1z"/>
		<path class="st0" d="M546,113.6c0,4.6-3.6,8.1-8.1,8.1s-8.1-3.4-8.1-8.1c0-4.4,3.6-8.1,8.1-8.1S546,109.1,546,113.6z M544.1,113.6
			c0-3.4-2.6-6.2-6.2-6.2s-6.2,2.9-6.2,6.2c0,3.5,2.8,6.2,6.2,6.2C541.2,119.8,544.1,117.1,544.1,113.6z"/>
		<path class="st0" d="M550,119.6h4.7v1.8h-6.6V106h2v13.6H550z"/>
		<path class="st0" d="M571.3,113.6c0,4.6-3.6,8.1-8.1,8.1c-4.4,0-8.1-3.4-8.1-8.1c0-4.4,3.6-8.1,8.1-8.1
			C567.6,105.5,571.3,109.1,571.3,113.6z M569.4,113.6c0-3.4-2.6-6.2-6.2-6.2c-3.6,0-6.2,2.9-6.2,6.2c0,3.5,2.8,6.2,6.2,6.2
			C566.6,119.8,569.4,117.1,569.4,113.6z"/>
		<path class="st0" d="M587.5,113.5v0.6c0,4.2-3,7.4-7.3,7.4s-7.8-3.7-7.8-8c0-4.4,3.5-8.1,8-8.1c2.4,0,4.8,1.1,6.3,3l-1.3,1.2
			c-1.1-1.6-3-2.5-4.9-2.5c-3.4,0-6.2,2.8-6.2,6.3c0,3.2,2.7,6.3,6,6.3c2.4,0,5-2.1,5.1-4.6h-4v-1.8h6.2L587.5,113.5L587.5,113.5z"
			/>
		<path class="st0" d="M588,105.8h2.2l3.8,6.6l3.8-6.6h2.2l-5.1,8.7v6.7h-2v-6.7L588,105.8z"/>
	</g>
	<g>
		<g>
			<path class="st1" d="M312,66.4l-7.8-12.9c0,0-0.2-0.3-0.2-0.8v-0.3v-0.6V28.7h-3v24v0.7c0.2,0.2,5.2,8.6,5.2,8.6h-12.1
				c0,0,4.9-8.4,5.2-8.6v-0.7v-24h-2.9v23.1v0.6v0.3c0,0.5-0.2,0.8-0.2,0.8l-7.8,12.9C288.4,66.4,312,66.4,312,66.4z"/>
		</g>
		<g>
			<path class="st1" d="M309.5,11.9c0,0,1.4-6.1-3.7-10c0,0-2.1-1.9-6.1-1.9c-3.5,0-5.6,1.9-5.6,1.9c-4.8,3.3-3.5,10-3.5,10H309.5z"
				/>
			<path class="st1" d="M291.1,13.6H309c0.1-0.3,0.3-0.7,0.3-1h-18.6C290.9,12.8,291,13.1,291.1,13.6z"/>
			<path class="st1" d="M308.7,14.2h-17.3c0.2,0.3,0.4,0.7,0.6,1h16.1C308.4,14.9,308.6,14.5,308.7,14.2z"/>
			<path class="st1" d="M293.2,16.7H307c0.2-0.3,0.5-0.5,0.7-0.8h-15.2C292.7,16.1,293,16.3,293.2,16.7z"/>
			<path class="st1" d="M294.7,17.9h10.8c0.3-0.2,0.5-0.4,0.8-0.6h-12.4C294.1,17.5,294.4,17.7,294.7,17.9z"/>
			<path class="st1" d="M296.2,18.7c1.2,0.5,2.5,0.8,3.9,0.8s2.7-0.3,3.9-0.8H296.2z"/>
		</g>
		<path class="st0" d="M318.6,20.1H304c0,0-1.3,0-2.5,0.7c-0.8,0.6-1.4,1.9-1.4,2l0,0c0-0.1-0.6-1.3-1.4-2c-1-0.7-2.5-0.7-2.5-0.7
			h-14.6l-2.9,4.7H292c0,0,0.4,0,0.6,0c0.4,0.1,1.1,0.3,1.8,0.8c1,0.7,1.2,1,1.6,1.3c0.1,0.1,0.4,0.5,0.4,0.5h3.3h0.4l0,0h1.1h2.5
			c0,0,0.3-0.4,0.4-0.5c0.2-0.2,0.5-0.6,1.6-1.3c0.7-0.5,1.4-0.7,1.8-0.8c0.2,0,0.6,0,0.6,0h13.3L318.6,20.1z"/>
		<g>
			<g>
				<path class="st0" d="M280.1,26.2v21.9c0,0,0,0.2,0,0.3c0,0.2,0,0.4,0,0.6c0.2,2.4,0.9,4,2.4,6.4c2.2,3.6,6,6.1,6,6.1l1.9-2.9
					c0,0-2.5-1.3-4.4-4.3c-0.4-0.6-0.8-1.1-1-1.8c-0.2-0.5-0.4-0.9-0.6-1.4c-0.1-0.3-0.2-0.6-0.3-0.9c-0.1-0.4-0.1-0.7-0.2-1.1
					c0-0.1,0-0.7,0-0.7v-0.1v-22L280.1,26.2L280.1,26.2z"/>
				<path class="st0" d="M285.7,26.2v22.1c0,0,0,0.1,0,0.2c0,0.1,0,0.3,0,0.4c0,0.1,0,0.2,0,0.2c0.1,0.3,0.1,0.6,0.3,1.1
					c0.2,0.7,0.7,1.7,1.3,2.7c1.7,2.7,4,3.8,4,3.8l1.9-2.9c0,0-0.6-0.3-1.3-1c-0.5-0.5-1-1-1.6-1.9c-0.5-0.7-0.8-1.6-0.9-2.1
					s-0.2-0.8-0.2-1.1c0-0.2,0-0.3,0-0.3V26.2H285.7z"/>
			</g>
			<g>
				<path class="st0" d="M320.1,26.2v21.9c0,0,0,0.2,0,0.3c0,0.2,0,0.4,0,0.6c-0.2,2.4-0.9,4-2.4,6.4c-2.2,3.6-6,6.1-6,6.1l-1.9-2.9
					c0,0,2.5-1.3,4.4-4.3c0.4-0.6,0.8-1.1,1-1.8c0.2-0.5,0.4-0.9,0.6-1.4c0.1-0.3,0.2-0.6,0.3-0.9c0.1-0.4,0.1-0.7,0.2-1.1
					c0-0.1,0-0.7,0-0.7v-0.1v-22L320.1,26.2L320.1,26.2z"/>
				<path class="st0" d="M314.5,26.2v22.1c0,0,0,0.1,0,0.2c0,0.1,0,0.3,0,0.4c0,0.1,0,0.2,0,0.2c-0.1,0.3-0.1,0.6-0.3,1.1
					c-0.2,0.7-0.7,1.7-1.3,2.7c-1.7,2.7-4,3.8-4,3.8l-1.9-2.9c0,0,0.6-0.3,1.3-1c0.5-0.5,1-1,1.6-1.9c0.5-0.7,0.8-1.6,0.9-2.1
					s0.2-0.8,0.2-1.1c0-0.2,0-0.3,0-0.3V26.2H314.5z"/>
			</g>
		</g>
	</g>
</g>
</svg>
